<svg width="14" height="9" viewBox="0 0 14 9" fill="none" xmlns="http://www.w3.org/2000/svg">
<path d="M0.636536 8.20754C0.824064 8.39501 1.07837 8.50032 1.34354 8.50032C1.6087 8.50032 1.86301 8.39501 2.05054 8.20754L7.00054 3.25754L11.9505 8.20754C12.1391 8.3897 12.3917 8.49049 12.6539 8.48821C12.9161 8.48593 13.1669 8.38076 13.3524 8.19536C13.5378 8.00995 13.6429 7.75913 13.6452 7.49694C13.6475 7.23474 13.5467 6.98214 13.3645 6.79354L7.70754 1.13654C7.52001 0.949065 7.2657 0.84375 7.00054 0.84375C6.73537 0.84375 6.48106 0.949065 6.29354 1.13654L0.636536 6.79354C0.449065 6.98107 0.34375 7.23537 0.34375 7.50054C0.34375 7.7657 0.449065 8.02001 0.636536 8.20754Z" fill="#101415"/>
</svg>
