<svg width="23" height="42" viewBox="0 0 23 42" fill="none" xmlns="http://www.w3.org/2000/svg">
<path d="M19.0495 21L1.35787 39.1812C1.21221 39.3278 1.09706 39.5017 1.01907 39.693C0.94108 39.8843 0.901808 40.0892 0.903523 40.2958C0.905239 40.5024 0.94791 40.7066 1.02907 40.8966C1.11022 41.0866 1.22825 41.2586 1.37632 41.4027C1.5244 41.5468 1.69957 41.6601 1.89171 41.736C2.08385 41.8119 2.28915 41.849 2.49571 41.8451C2.70228 41.8411 2.90601 41.7963 3.09512 41.7131C3.28424 41.6299 3.45497 41.51 3.59745 41.3604L22.3475 22.0896C22.6313 21.7979 22.79 21.407 22.79 21C22.79 20.593 22.6313 20.2021 22.3475 19.9104L3.59745 0.639563C3.45497 0.489954 3.28424 0.370089 3.09513 0.286898C2.90601 0.203711 2.70228 0.15885 2.49572 0.154917C2.28915 0.150988 2.08386 0.188055 1.89172 0.263987C1.69958 0.339918 1.5244 0.453199 1.37633 0.597277C1.22825 0.741354 1.11023 0.91337 1.02907 1.10336C0.947914 1.29336 0.905243 1.49756 0.903526 1.70415C0.901811 1.91075 0.941084 2.11563 1.01907 2.30695C1.09706 2.49827 1.21222 2.67222 1.35787 2.81874L19.0495 21Z" fill="#DCC198"/>
</svg>
