<svg width="350" height="100" viewBox="0 0 387 109" fill="none" xmlns="http://www.w3.org/2000/svg">
<path fill-rule="evenodd" clip-rule="evenodd" d="M35.1315 28.0949C35.0472 28.0202 34.9352 27.9872 34.8251 28.0045C34.715 28.0219 34.6179 28.0879 34.5593 28.1851L32.4032 31.7636C32.3405 31.8677 32.329 31.9959 32.372 32.1099L34.2642 37.1199L33.6209 38.0549C33.5121 38.213 33.5326 38.4289 33.669 38.5624L34.7545 39.6256L33.2452 40.9072C33.1401 40.9964 33.0896 41.1365 33.1129 41.2745C33.1361 41.4124 33.2296 41.527 33.3578 41.5748L34.1914 41.8858L32.2675 43.8597C32.1706 43.9592 32.1333 44.1045 32.1699 44.24C32.2065 44.3755 32.3113 44.4804 32.4443 44.5145L33.2085 44.7105L31.4516 47.6398C31.4331 47.6705 31.419 47.7037 31.4094 47.7384L30.0143 52.8134C29.9969 52.8767 29.9954 52.9434 30.0098 53.0074L31.5867 59.9968L31.7124 64.1874C31.717 64.3415 31.8096 64.4784 31.9487 64.5368C32.0879 64.5951 32.2474 64.5639 32.3559 64.4572L33.1975 63.6298L33.1076 65.9819C33.1024 66.1184 33.1671 66.2478 33.2782 66.323C33.3894 66.3983 33.5308 66.4084 33.6511 66.3498L35.3894 65.5026L34.8381 67.2428C34.8005 67.3617 34.8206 67.4919 34.8922 67.593C34.9638 67.6941 35.0782 67.7539 35.2 67.7539H36.7792L36.4848 68.7463C36.4497 68.8646 36.4713 68.993 36.5431 69.0924C36.6148 69.1917 36.7282 69.2504 36.8488 69.2504H38.5863L38.6887 70.7737C38.6968 70.8936 38.7583 71.0031 38.8554 71.0704C38.9525 71.1376 39.0744 71.1552 39.1859 71.1181L41.5007 70.3462L43.4285 72.3241C43.4495 72.3457 43.4729 72.3646 43.4981 72.3806L45.9713 73.9421C46.0313 73.98 46.1003 74 46.1707 74H52.8293C52.8997 74 52.9687 73.98 53.0287 73.9421L55.5019 72.3806C55.5271 72.3646 55.5505 72.3457 55.5715 72.3241L57.4993 70.3462L59.8141 71.1181C59.9256 71.1552 60.0475 71.1376 60.1446 71.0704C60.2417 71.0031 60.3032 70.8936 60.3113 70.7737L60.4137 69.2504H62.1512C62.2718 69.2504 62.3852 69.1917 62.4569 69.0924C62.5287 68.993 62.5503 68.8646 62.5152 68.7463L62.2208 67.7539H63.8C63.9218 67.7539 64.0362 67.6941 64.1078 67.593C64.1794 67.4919 64.1995 67.3617 64.1619 67.2428L63.6106 65.5026L65.3489 66.3498C65.4692 66.4084 65.6106 66.3983 65.7218 66.323C65.8329 66.2478 65.8976 66.1184 65.8924 65.9819L65.8025 63.6298L66.6441 64.4572C66.7526 64.5639 66.9121 64.5951 67.0513 64.5368C67.1904 64.4784 67.283 64.3415 67.2876 64.1874L67.4133 59.9968L68.9902 53.0074C69.0046 52.9434 69.0031 52.8767 68.9857 52.8134L67.5906 47.7384C67.581 47.7037 67.5669 47.6705 67.5484 47.6398L65.7915 44.7105L66.5557 44.5145C66.6887 44.4804 66.7935 44.3755 66.8301 44.24C66.8667 44.1045 66.8294 43.9592 66.7325 43.8597L64.8086 41.8858L65.6422 41.5748C65.7704 41.527 65.8639 41.4124 65.8871 41.2745C65.9104 41.1365 65.8599 40.9964 65.7548 40.9072L64.2455 39.6256L65.331 38.5624C65.4674 38.4289 65.4879 38.213 65.3791 38.0549L64.7358 37.1199L66.628 32.1099C66.671 31.9959 66.6595 31.8677 66.5968 31.7636L64.4407 28.1851C64.3821 28.0879 64.285 28.0219 64.1749 28.0045C64.0648 27.9872 63.9528 28.0202 63.8685 28.0949L63.8675 28.0957L63.8643 28.0986L63.8513 28.11C63.8398 28.1201 63.8227 28.1352 63.8005 28.1547C63.756 28.1936 63.6911 28.2503 63.6098 28.3207C63.447 28.4616 63.2186 28.6573 62.9562 28.8765C62.4291 29.317 61.7741 29.8445 61.2408 30.2139C60.7664 30.5425 60.1274 30.9266 59.6009 31.2316C59.3389 31.3834 59.1071 31.5143 58.9408 31.6072C58.8932 31.6338 58.851 31.6573 58.815 31.6772L49.7095 28.7337C49.661 28.7181 49.6115 28.7129 49.5634 28.717C49.5153 28.7129 49.4658 28.7181 49.4174 28.7337L40.185 31.6772C40.149 31.6573 40.1068 31.6338 40.0592 31.6072C39.8929 31.5143 39.6611 31.3834 39.3991 31.2316C38.8726 30.9266 38.2336 30.5425 37.7592 30.2139C37.2259 29.8445 36.5709 29.317 36.0438 28.8765C35.7814 28.6573 35.553 28.4616 35.3902 28.3207C35.3089 28.2503 35.244 28.1936 35.1995 28.1547C35.1773 28.1352 35.1602 28.1201 35.1487 28.11L35.1315 28.0949ZM49.5634 29.558L43.8082 33.5441L49.4751 32.6889C49.5048 32.6843 49.5344 32.6834 49.5634 32.6859C49.5924 32.6834 49.622 32.6843 49.6517 32.6889L55.1918 33.5441L49.5634 29.558ZM49.5634 33.5281L44.3209 37.1863L49.5356 37.2391C49.5449 37.2392 49.5542 37.2396 49.5634 37.2404C49.5726 37.2396 49.5819 37.2392 49.5913 37.2391L54.6791 37.1863L49.5634 33.5281ZM49.5634 38.1148L45.653 41.4259L45.7287 41.5036L48.3871 41.0188C48.5366 40.9915 48.6877 41.0581 48.7713 41.1882C48.8549 41.3183 48.8551 41.487 48.7718 41.6173L47.4504 43.6831L45.3022 47.9025L46.1436 52.1575L49.5634 56.1289L52.8564 52.1575L53.6978 47.9025L51.5496 43.6831L50.2282 41.6173C50.1449 41.487 50.1451 41.3183 50.2287 41.1882C50.3123 41.0581 50.4634 40.9915 50.6129 41.0188L53.2712 41.5036L53.347 41.4259L49.5634 38.1148ZM49.5634 57.3437L49.1151 56.946L46.0544 53.2549L45.2829 59.1914V62.1115L46.2519 63.7022L46.6123 63.366C46.7593 63.2289 46.9844 63.2309 47.1291 63.3706L48.0972 64.3055H49.5317C49.5424 64.3055 49.553 64.306 49.5634 64.3069C49.5739 64.306 49.5844 64.3055 49.5951 64.3055H50.9028L51.8709 63.3706C52.0156 63.2309 52.2407 63.2289 52.3877 63.366L52.7481 63.7022L53.7171 62.1115V59.1914L52.9456 53.2549L49.8849 56.946L49.5634 57.3437ZM49.5634 70.6154C49.553 70.6162 49.5424 70.6167 49.5317 70.6167H48.0732C48.0202 70.6167 47.9678 70.6053 47.9193 70.5834L44.0229 68.8159L44.0193 68.8143L43.0185 68.373L42.0911 69.8478L43.935 71.7396L46.2784 73.2192H52.7216L55.065 71.7396L56.9089 69.8478L55.9815 68.373L54.9807 68.8143L54.9771 68.8159L51.0807 70.5834C51.0322 70.6053 50.9798 70.6167 50.9268 70.6167H49.5951C49.5844 70.6167 49.5739 70.6162 49.5634 70.6154ZM32.9808 56.418L33.3696 45.9317L32.1274 48.0027L30.7732 52.9289L32.3365 59.8582C32.3422 59.8832 32.3454 59.9086 32.3462 59.9342L32.4467 63.2866L33.3514 62.3971C33.4634 62.2869 33.6293 62.2576 33.7708 62.3229C33.9123 62.3883 34.0009 62.5352 33.9948 62.6942L33.8926 65.3677L35.5584 64.5559L32.9995 56.5545C32.9854 56.5105 32.979 56.4643 32.9808 56.418ZM39.7813 66.0383L36.3331 64.4742L33.7438 56.3777L34.1754 44.7364L36.9722 43.6719L35.049 47.6717C35.0204 47.7312 35.0071 47.7972 35.0102 47.8634L35.5175 58.5339C35.523 58.6488 35.5775 58.7553 35.6666 58.8251L39.0349 61.4642L39.7813 66.0383ZM38.5217 45.086L37.7675 43.7827L35.7751 47.9264L36.269 58.3147L38.9451 60.4114L38.5647 55.003L37.0527 49.3796C37.0315 49.3009 37.035 49.2173 37.0626 49.1406L38.5217 45.086ZM40.4838 65.6147L39.7872 61.3461L45.2173 53.7891L44.5363 59.0293L40.4838 65.6147ZM45.2407 51.9256L45.3034 52.1025L39.198 54.4226L37.8979 49.5872L40.8274 49.0677L41.1762 50.2959C41.2106 50.4171 41.2999 50.5137 41.416 50.5553L45.2407 51.9256ZM39.6907 60.1647L39.3415 55.2006L44.7285 53.1536L39.6907 60.1647ZM38.4769 48.6921L42.604 44.1896L46.4705 43.9216L44.5652 47.6637C44.5248 47.743 44.5122 47.8343 44.5295 47.922L45.0407 50.5069L42.8333 48.0975C42.7458 48.002 42.6173 47.9579 42.4913 47.9802L38.4769 48.6921ZM42.1521 43.543L38.4249 47.6092L39.2984 45.1819C39.3381 45.0715 39.3272 44.9486 39.2686 44.8474L38.2166 43.0294L43.2802 37.9564L48.3845 38.0093L47.5525 38.7374H44.9659C44.8827 38.7374 44.8018 38.7654 44.7355 38.8171L43.4038 39.8562C43.2738 39.9576 43.2214 40.1328 43.2736 40.2916C43.3257 40.4504 43.4708 40.5573 43.6341 40.5573H45.4729L44.8458 41.1061C44.765 41.1768 44.7167 41.2788 44.7125 41.3877C44.7083 41.4965 44.7486 41.6021 44.8236 41.6792L44.981 41.8407L42.2384 43.4728C42.2064 43.4918 42.1774 43.5154 42.1521 43.543ZM38.1482 35.6417L42.4652 37.6815L37.5285 42.6274L33.7829 44.0531L33.2808 43.9243L35.152 42.0045C35.2439 41.9101 35.2825 41.7741 35.2544 41.6439C35.2262 41.5136 35.1352 41.4072 35.013 41.3616L34.2423 41.074L35.5694 39.9471C35.6531 39.8761 35.7032 39.7716 35.7071 39.6602C35.7109 39.5488 35.6682 39.441 35.5895 39.364L34.4318 38.2301L35.0035 37.3991C35.077 37.2923 35.0935 37.1548 35.0475 37.0329L33.15 32.0089L34.8509 29.1859L37.9683 35.4643C38.0071 35.5425 38.0705 35.605 38.1482 35.6417ZM38.5864 34.9892L36.0516 29.8841C36.474 30.2266 36.9326 30.5834 37.3335 30.861C37.8342 31.2079 38.4952 31.6045 39.0249 31.9115C39.2911 32.0656 39.5264 32.1985 39.6952 32.2928C39.7797 32.34 39.8476 32.3776 39.8945 32.4035C39.9179 32.4164 39.9361 32.4264 39.9485 32.4332L39.9674 32.4435L39.9676 32.4437C39.9676 32.4437 39.9678 32.4437 40.1463 32.099L39.9678 32.4437C40.0578 32.4929 40.1634 32.5028 40.2607 32.4714L47.1094 30.2574L42.0229 33.8598C41.8771 33.963 41.8201 34.1557 41.8852 34.3247C41.9504 34.4936 42.1205 34.5941 42.2956 34.5671L47.8522 33.7094L43.088 37.1162L38.5864 34.9892ZM40.8303 66.5141L44.522 60.515V62.2235C44.522 62.2966 44.542 62.3683 44.5798 62.4304L45.8481 64.5124C45.8643 64.5391 45.8837 64.5637 45.9057 64.5856L48.0618 66.7327C48.1328 66.8035 48.2279 66.843 48.3268 66.843H49.0244V67.16L47.8837 69.7135L44.327 68.1002L44.3234 68.0986L43.0288 67.5277L42.3841 67.219L42.3822 67.2181C42.3805 67.2173 42.3787 67.2165 42.377 67.2157L40.8303 66.5141ZM42.0657 67.9281L42.317 68.0485L41.3585 69.5727L39.4143 70.2209L39.321 68.8331C39.3073 68.6284 39.1414 68.4696 38.9415 68.4696H37.3623L37.6567 67.4772C37.6918 67.3589 37.6702 67.2305 37.5984 67.1311C37.5266 67.0317 37.4132 66.9731 37.2927 66.9731H35.7237L36.256 65.2928L42.0657 67.9281ZM66.0192 56.418L65.6304 45.9317L66.8726 48.0027L68.2268 52.9289L66.6635 59.8582C66.6578 59.8832 66.6546 59.9086 66.6538 59.9342L66.5533 63.2866L65.6486 62.3971C65.5366 62.2869 65.3707 62.2576 65.2292 62.3229C65.0877 62.3883 64.9991 62.5352 65.0052 62.6942L65.1074 65.3677L63.4416 64.5559L66.0005 56.5545C66.0146 56.5105 66.021 56.4643 66.0192 56.418ZM59.2187 66.0383L62.6669 64.4742L65.2562 56.3777L64.8246 44.7364L62.0278 43.6719L63.951 47.6717C63.9796 47.7312 63.9929 47.7972 63.9898 47.8634L63.4825 58.5339C63.477 58.6488 63.4225 58.7553 63.3334 58.8251L59.9651 61.4642L59.2187 66.0383ZM60.4783 45.086L61.2325 43.7827L63.2249 47.9264L62.731 58.3147L60.0549 60.4114L60.4353 55.003L61.9473 49.3796C61.9685 49.3009 61.965 49.2173 61.9374 49.1406L60.4783 45.086ZM58.5162 65.6147L59.2128 61.3461L53.7827 53.7891L54.4637 59.0293L58.5162 65.6147ZM53.7593 51.9256L53.6966 52.1025L59.802 54.4226L61.1021 49.5872L58.1726 49.0677L57.8238 50.2959C57.7894 50.4171 57.7001 50.5137 57.584 50.5553L53.7593 51.9256ZM59.3093 60.1647L59.6585 55.2006L54.2715 53.1536L59.3093 60.1647ZM60.5231 48.6921L56.396 44.1896L52.5295 43.9216L54.4348 47.6637C54.4752 47.743 54.4878 47.8343 54.4705 47.922L53.9593 50.5069L56.1667 48.0975C56.2542 48.002 56.3827 47.9579 56.5087 47.9802L60.5231 48.6921ZM56.8479 43.543L60.5751 47.6092L59.7016 45.1819C59.6619 45.0715 59.6728 44.9486 59.7314 44.8474L60.7834 43.0294L55.7198 37.9564L50.6155 38.0093L51.4475 38.7374H54.0341C54.1173 38.7374 54.1982 38.7654 54.2645 38.8171L55.5962 39.8562C55.7262 39.9576 55.7786 40.1328 55.7264 40.2916C55.6743 40.4504 55.5292 40.5573 55.3659 40.5573H53.5271L54.1542 41.1061C54.235 41.1768 54.2833 41.2788 54.2875 41.3877C54.2917 41.4965 54.2514 41.6021 54.1764 41.6792L54.019 41.8407L56.7616 43.4728C56.7936 43.4918 56.8226 43.5154 56.8479 43.543ZM60.8518 35.6417L56.5348 37.6815L61.4715 42.6274L65.2171 44.0531L65.7192 43.9243L63.848 42.0045C63.7561 41.9101 63.7175 41.7741 63.7456 41.6439C63.7738 41.5136 63.8648 41.4072 63.987 41.3616L64.7577 41.074L63.4306 39.9471C63.3469 39.8761 63.2968 39.7716 63.2929 39.6602C63.2891 39.5488 63.3318 39.441 63.4104 39.364L64.5682 38.2301L63.9965 37.3991C63.923 37.2923 63.9065 37.1548 63.9525 37.0329L65.85 32.0089L64.1491 29.1859L61.0317 35.4643C60.9929 35.5425 60.9295 35.605 60.8518 35.6417ZM60.4136 34.9892L62.9484 29.8841C62.526 30.2266 62.0674 30.5834 61.6665 30.861C61.1658 31.2079 60.5048 31.6045 59.9751 31.9115C59.7089 32.0656 59.4736 32.1985 59.3048 32.2928C59.2203 32.34 59.1524 32.3776 59.1055 32.4035C59.093 32.4104 59.082 32.4165 59.0725 32.4216C59.0643 32.4262 59.0572 32.43 59.0515 32.4332L59.0373 32.441L59.0324 32.4437C59.0324 32.4437 59.0322 32.4437 58.8537 32.099L59.0322 32.4437C58.9422 32.4929 58.8366 32.5028 58.7393 32.4714L51.8906 30.2574L56.9771 33.8598C57.1229 33.963 57.1799 34.1557 57.1148 34.3247C57.0496 34.4936 56.8795 34.5941 56.7044 34.5671L51.1478 33.7094L55.9119 37.1162L60.4136 34.9892ZM58.1697 66.5141L54.478 60.515V62.2235C54.478 62.2966 54.458 62.3683 54.4202 62.4304L53.1519 64.5124C53.1357 64.5391 53.1163 64.5637 53.0943 64.5856L50.9382 66.7327C50.8672 66.8035 50.7721 66.843 50.6732 66.843H49.9756V67.16L51.1163 69.7135L54.673 68.1002L54.6766 68.0986L55.9712 67.5277L56.6159 67.219L56.6178 67.2181C56.6195 67.2173 56.6213 67.2165 56.623 67.2157L58.1697 66.5141ZM56.9343 67.9281L56.683 68.0485L57.6415 69.5727L59.5857 70.2209L59.6789 68.8331C59.6927 68.6284 59.8586 68.4696 60.0585 68.4696H61.6377L61.3433 67.4772C61.3082 67.3589 61.3298 67.2305 61.4016 67.1311C61.4734 67.0317 61.5868 66.9731 61.7073 66.9731H63.2763L62.744 65.2928L56.9343 67.9281Z" fill="#DABF98"/>
<path d="M94 79L94 23" stroke="#DABF98" stroke-width="3"/>
<path d="M123.738 57.0568H120.943V56.8586C121.577 56.8586 121.676 56.4225 121.676 55.8872V46.392C121.676 46.2532 121.617 46.1938 121.478 46.1938C121.418 46.1938 121.359 46.2136 121.26 46.2532L119 46.9669V46.2532L123.619 44.6476V45.1828C123.202 45.3612 122.905 45.7775 122.965 46.3127V55.8079C122.965 56.363 123.084 56.8586 123.738 56.8586V57.0568Z" fill="#DABF98"/>
<path d="M137.375 52.3786C139.298 52.3786 140.19 50.9315 140.19 49.4051C140.19 47.5616 139.04 45.5396 137.038 45.5396C135.234 45.5396 134.322 47.1056 134.322 48.7113C134.322 50.5152 135.433 52.3786 137.375 52.3786ZM134.382 55.6494H134.58C134.996 56.1846 135.651 56.5414 136.186 56.4423C138.485 56.4423 139.635 53.9644 139.913 52.1605C139.139 52.8543 138.188 53.0724 137.137 53.0724C134.422 53.0724 133.093 51.0702 133.093 49.0086C133.093 46.9272 134.481 44.8458 137.177 44.8458C140.17 44.8458 141.439 47.2444 141.439 49.9601C141.439 53.4688 140.051 57.2947 136.126 57.2947C135.75 57.2947 135.096 57.1955 134.778 57.1361C134.6 57.1163 134.322 57.0766 134.382 57.0766V55.6494Z" fill="#DABF98"/>
<path d="M150.557 50.9117C150.557 46.8479 152.817 44.6674 155.037 44.6674C157.277 44.6674 159.517 46.8479 159.517 50.9117C159.517 55.015 157.277 57.255 155.037 57.255C152.817 57.255 150.557 55.015 150.557 50.9117ZM158.268 51.4271C158.268 47.621 156.444 45.5396 154.66 45.5396C152.856 45.5396 151.727 47.74 151.727 50.1584C151.727 53.0724 153.174 56.4423 155.315 56.4423C156.841 56.4423 158.268 54.678 158.268 51.4271Z" fill="#DABF98"/>
<path d="M176.564 53.8256C176.564 56.1449 174.582 57.255 172.282 57.255C170.122 57.255 167.961 56.1449 167.961 53.8653C167.961 52.3587 168.813 51.0702 170.776 50.4954C169.269 49.8016 168.595 48.9492 168.595 47.621C168.595 45.6784 170.379 44.6674 172.203 44.6674C174.007 44.6674 175.89 45.6784 175.89 47.6805C175.89 48.8699 175.018 49.98 173.749 50.5152C175.395 50.9909 176.564 52.0812 176.564 53.8256ZM174.74 47.9778C174.74 46.3722 173.293 45.3216 171.926 45.3216C170.895 45.3216 169.805 45.9559 169.805 47.2246C169.805 48.6717 171.311 49.6232 172.818 50.0989C174.007 49.6232 174.74 48.9095 174.74 47.9778ZM175.573 54.2419C175.573 52.7354 173.829 51.6451 171.727 50.9909C170.36 51.4667 169.23 52.3984 169.23 53.6076C169.23 55.2331 170.835 56.5216 172.52 56.5216C173.928 56.5216 175.573 55.6295 175.573 54.2419Z" fill="#DABF98"/>
<path d="M189.564 53.4683H185.064V52.4772H189.564V53.4683Z" fill="#DABF98"/>
<path d="M211.453 57.5518V57.3536H211.552C211.948 57.3536 212.186 56.6598 212.186 56.2633V45.7175C212.186 45.3408 211.948 44.6669 211.512 44.6669H211.413V44.4686H214.664C217.122 44.4686 218.589 45.6382 218.589 47.4421C218.589 48.9685 217.4 49.8803 216.547 50.2966C218.767 50.7129 219.461 52.4177 219.461 53.8251C219.461 56.5607 217.281 57.5518 215.001 57.5518H211.453ZM218.113 54.1621V53.944C217.895 51.9023 216.745 50.7525 214.624 50.7525H213.514V56.8977H214.664C216.805 56.8977 218.113 55.8867 218.113 54.1621ZM217.301 47.7592V47.6205C217.221 46.0941 216.171 45.1228 214.505 45.1228H213.514V50.1182H214.545C216.745 50.1182 217.301 48.8099 217.301 47.7592Z" fill="#DABF98"/>
<path d="M226.955 44.6669V44.4686H229.195V44.6669C229.016 44.6867 228.818 44.8254 228.818 45.0831C228.818 45.1426 228.838 45.2219 228.878 45.3012L231.851 50.5146L234.706 45.5787C234.805 45.3607 234.844 45.3012 234.844 45.1426C234.785 44.7263 234.448 44.6669 234.388 44.6669V44.4686H236.509V44.6669C236.113 44.6669 235.677 45.2814 235.38 45.7769L232.287 51.1292V56.2633C232.287 56.64 232.545 57.3536 232.941 57.3536H233.04V57.5518H230.206V57.3536H230.305C230.721 57.3536 230.959 56.6796 230.959 56.2633V51.3076L228.263 45.8364C228.005 45.44 227.49 44.6669 227.054 44.6669H226.955Z" fill="#DABF98"/>
<path d="M257.736 57.5515V57.3533H257.835C258.232 57.3533 258.509 56.6991 258.509 56.3027V45.6974C258.509 45.3207 258.232 44.6666 257.835 44.6666H257.736V44.4683H260.591V44.6666H260.492C260.095 44.6666 259.838 45.3207 259.838 45.6974V56.8181H264.179C265.19 56.8181 265.666 55.7476 265.666 55.0538H265.864V57.5515H257.736Z" fill="#DABF98"/>
<path d="M282.151 57.5515V57.3533H282.25C282.567 57.3533 282.725 57.2145 282.725 56.9172C282.725 56.8181 282.706 56.6991 282.666 56.5802L280.882 51.7632H277.413L275.688 56.5009C275.649 56.6 275.629 56.6991 275.629 56.7983C275.629 57.1352 275.847 57.3533 276.065 57.3533H276.164V57.5515H273.964V57.3533H274.063C274.4 57.3533 274.757 56.8775 274.975 56.3225L279.514 44.2305L283.954 56.2036C284.133 56.7388 284.45 57.3533 284.985 57.3533H285.084V57.5515H282.151ZM279.137 46.9462L277.611 51.0892H280.664L279.137 46.9462Z" fill="#DABF98"/>
<path d="M300.38 44.9837C296.475 44.9837 294.631 48.0761 294.631 50.8514C294.631 53.9834 297.228 57.0361 300.539 57.0361C301.51 57.0361 303.274 56.719 303.849 54.9151H304.047V57.1154C303.651 57.1154 303.234 57.2344 302.699 57.3731C302.005 57.5515 301.173 57.7498 300.241 57.7498C295.622 57.7498 293.283 54.2807 293.283 51.0298C293.283 47.759 295.603 44.2701 300.459 44.2701C301.331 44.2701 302.025 44.4683 302.58 44.6269C302.977 44.7657 303.294 44.8252 303.611 44.8252V47.0255H303.413C303.096 45.3604 301.589 44.9837 300.38 44.9837Z" fill="#DABF98"/>
<path d="M315.58 57.3533H315.68V57.5515H312.885V57.3533H312.984C313.38 57.3533 313.618 56.6595 313.618 56.263V45.6974C313.618 45.3207 313.38 44.6666 312.984 44.6666H312.885V44.4683H316.334C318.97 44.4683 320.477 45.519 320.477 47.5211C320.477 49.5232 319.069 50.5144 317.384 50.8315L318.812 53.0121C319.505 54.0627 320.219 55.0538 320.913 56.1441C321.29 56.6793 321.805 57.3533 322.4 57.3533V57.5515H321.547C320.497 57.5515 319.862 56.9568 319.406 56.263C318.217 54.5186 317.047 52.6949 315.878 50.9505C315.58 50.9306 315.243 50.891 314.946 50.8315V56.263C314.946 56.6595 315.184 57.3533 315.58 57.3533ZM315.243 45.1423H314.946V50.1774H315.045C315.263 50.1972 315.719 50.217 316.413 50.217C317.503 50.217 319.109 49.5827 319.109 47.6004C319.109 45.5983 317.523 45.1423 315.243 45.1423Z" fill="#DABF98"/>
<path d="M331.296 44.6666V44.4683H334.131V44.6666H334.032C333.655 44.6666 333.397 45.3009 333.397 45.6974V56.263C333.397 56.6595 333.635 57.3533 334.032 57.3533H334.131V57.5515H331.296V57.3533H331.395C331.812 57.3533 332.05 56.6793 332.05 56.263V45.6974C332.05 45.3207 331.812 44.6666 331.395 44.6666H331.296Z" fill="#DABF98"/>
<path d="M353.834 57.5515V57.3533H353.933C354.329 57.3533 354.567 56.6595 354.567 56.263V45.8361L349.453 57.7696L344.596 46.4506V56.263C344.596 56.6595 344.834 57.3533 345.25 57.3533H345.349V57.5515H343.189V57.3533H343.288C343.684 57.3533 343.902 56.6595 343.902 56.263V45.6974C343.902 45.3207 343.684 44.6666 343.288 44.6666H343.189V44.4683H345.211L349.81 55.3115L354.409 44.4683H356.648V44.6666H356.549C356.133 44.6666 355.895 45.3207 355.895 45.6974V56.263C355.895 56.6595 356.133 57.3533 356.549 57.3533H356.648V57.5515H353.834Z" fill="#DABF98"/>
</svg>
