<svg width="22" height="20" viewBox="0 0 22 20" fill="none" xmlns="http://www.w3.org/2000/svg">
<path d="M11.0136 7.49935C10.3412 7.49935 9.69644 7.76274 9.22102 8.23158C8.7456 8.70042 8.47852 9.33631 8.47852 9.99935C8.47852 10.6624 8.7456 11.2983 9.22102 11.7671C9.69644 12.236 10.3412 12.4993 11.0136 12.4993C11.6859 12.4993 12.3307 12.236 12.8062 11.7671C13.2816 11.2983 13.5487 10.6624 13.5487 9.99935C13.5487 9.33631 13.2816 8.70042 12.8062 8.23158C12.3307 7.76274 11.6859 7.49935 11.0136 7.49935ZM11.0136 5.83268C12.1342 5.83268 13.2088 6.27167 14.0012 7.05307C14.7936 7.83447 15.2387 8.89428 15.2387 9.99935C15.2387 11.1044 14.7936 12.1642 14.0012 12.9456C13.2088 13.727 12.1342 14.166 11.0136 14.166C9.89302 14.166 8.81834 13.727 8.02598 12.9456C7.23361 12.1642 6.78847 11.1044 6.78847 9.99935C6.78847 8.89428 7.23361 7.83447 8.02598 7.05307C8.81834 6.27167 9.89302 5.83268 11.0136 5.83268ZM16.5062 5.62435C16.5062 5.90062 16.395 6.16557 16.1969 6.36092C15.9988 6.55627 15.7301 6.66601 15.45 6.66601C15.1698 6.66601 14.9012 6.55627 14.7031 6.36092C14.505 6.16557 14.3937 5.90062 14.3937 5.62435C14.3937 5.34808 14.505 5.08313 14.7031 4.88778C14.9012 4.69243 15.1698 4.58268 15.45 4.58268C15.7301 4.58268 15.9988 4.69243 16.1969 4.88778C16.395 5.08313 16.5062 5.34808 16.5062 5.62435ZM11.0136 3.33268C8.923 3.33268 8.58161 3.33852 7.60899 3.38102C6.94649 3.41185 6.502 3.49935 6.08963 3.65768C5.74454 3.78263 5.43255 3.9829 5.17701 4.24352C4.91252 4.49551 4.70916 4.80317 4.58211 5.14351C4.42155 5.55185 4.33283 5.98935 4.30241 6.64185C4.25846 7.56185 4.25255 7.88351 4.25255 9.99935C4.25255 12.0618 4.25846 12.3977 4.30156 13.3568C4.33283 14.0093 4.42155 14.4485 4.58126 14.8543C4.72492 15.2168 4.89392 15.4777 5.17447 15.7543C5.45924 16.0343 5.72374 16.2018 6.0871 16.3402C6.50454 16.4993 6.94902 16.5877 7.60814 16.6177C8.54105 16.661 8.86723 16.666 11.0127 16.666C13.1042 16.666 13.4447 16.6602 14.4173 16.6177C15.0782 16.5868 15.5226 16.4993 15.9359 16.3418C16.2806 16.2163 16.5925 16.0161 16.8485 15.756C17.1333 15.476 17.3031 15.2152 17.4434 14.856C17.6039 14.446 17.6935 14.0077 17.7239 13.356C17.7679 12.4368 17.7729 12.1143 17.7729 9.99935C17.7729 7.93768 17.767 7.60101 17.7239 6.64185C17.6927 5.99018 17.6031 5.55018 17.4434 5.14351C17.316 4.80353 17.113 4.496 16.8493 4.24352C16.5939 3.98255 16.2819 3.78199 15.9367 3.65685C15.5226 3.49852 15.0782 3.41102 14.4173 3.38102C13.4853 3.33768 13.1591 3.33268 11.0127 3.33268M11.0127 1.66602C13.3087 1.66602 13.5951 1.67435 14.4968 1.71602C15.3959 1.75768 16.0094 1.89685 16.5477 2.10352C17.1054 2.31518 17.5752 2.60185 18.045 3.06435C18.4747 3.48093 18.8072 3.98484 19.0194 4.54101C19.2281 5.07185 19.37 5.67685 19.4123 6.56435C19.452 7.45268 19.463 7.73518 19.463 9.99935C19.463 12.2635 19.4545 12.546 19.4123 13.4343C19.37 14.3218 19.2281 14.926 19.0194 15.4577C18.8078 16.0141 18.4752 16.5182 18.045 16.9343C17.6225 17.3579 17.1115 17.6858 16.5477 17.8952C16.0094 18.101 15.3959 18.241 14.4968 18.2827C13.5951 18.3218 13.3087 18.3327 11.0127 18.3327C8.71681 18.3327 8.43035 18.3243 7.52871 18.2827C6.6296 18.241 6.01696 18.101 5.47783 17.8952C4.91363 17.6864 4.40256 17.3585 3.98045 16.9343C3.5507 16.5178 3.21821 16.0139 3.00614 15.4577C2.79657 14.9268 2.65545 14.3218 2.6132 13.4343C2.57264 12.546 2.5625 12.2635 2.5625 9.99935C2.5625 7.73518 2.57095 7.45268 2.6132 6.56435C2.65545 5.67685 2.79657 5.07268 3.00614 4.54101C3.21759 3.9845 3.55017 3.48045 3.98045 3.06435C4.40269 2.64037 4.91372 2.31246 5.47783 2.10352C6.01611 1.89685 6.62876 1.75768 7.52871 1.71602C8.43119 1.67685 8.71766 1.66602 11.0136 1.66602" fill="#F5F5F5"/>
</svg>
